<?xml version="1.0" encoding="UTF-8" standalone="no"?>
<!-- Created with Inkscape (http://www.inkscape.org/) -->

<svg
   width="500pt"
   height="500pt"
   viewBox="0 0 176.38889 176.38889"
   version="1.1"
   id="svg400"
   inkscape:version="1.1.1 (3bf5ae0d25, 2021-09-20)"
   sodipodi:docname="NaschiLogo.svg"
   xmlns:inkscape="http://www.inkscape.org/namespaces/inkscape"
   xmlns:sodipodi="http://sodipodi.sourceforge.net/DTD/sodipodi-0.dtd"
   xmlns="http://www.w3.org/2000/svg"
   xmlns:svg="http://www.w3.org/2000/svg">
  <sodipodi:namedview
     id="namedview402"
     pagecolor="#ffffff"
     bordercolor="#666666"
     borderopacity="1.0"
     inkscape:pageshadow="2"
     inkscape:pageopacity="0.0"
     inkscape:pagecheckerboard="0"
     inkscape:document-units="mm"
     showgrid="false"
     units="pt"
     inkscape:zoom="0.77771465"
     inkscape:cx="397.31796"
     inkscape:cy="560.61693"
     inkscape:window-width="2560"
     inkscape:window-height="1339"
     inkscape:window-x="0"
     inkscape:window-y="32"
     inkscape:window-maximized="1"
     inkscape:current-layer="layer1" />
  <defs
     id="defs397" />
  <g
     inkscape:label="Ebene 1"
     inkscape:groupmode="layer"
     id="layer1">
    <path
       d="m 92.530431,34.805142 c 12.833859,0 24.000869,7.25496 29.633049,17.874886 0.71775,1.354797 1.3511,2.762829 1.87981,4.220433 1.26118,3.465929 1.95874,7.196214 1.99917,11.082535 0.002,0.115627 -0.0843,3.062067 -0.24405,4.389326 -1.79359,14.845865 -13.32406,26.730617 -27.999228,29.058418 -0.0023,0 -0.0034,0 -0.0057,0 0,0.0208 0.0023,0.0313 0.0023,0.052 0,0.052 0.01019,0.10092 0.01019,0.15039 0.02084,3.76333 0.767347,7.35045 2.089091,10.64932 0.0156,0.0365 0.0261,0.0698 0.0365,0.10466 0.026,-0.003 0.052,-0.006 0.0734,-0.0102 1.90189,-0.32316 3.76701,-0.75637 5.57896,-1.3126 16.5201,-5.05755 28.98497,-19.444505 31.24845,-36.99262 0.19098,-1.481467 0.38194,-5.329238 0.38194,-5.742286 0,-3.662361 -0.45324,-7.218248 -1.28683,-10.627269 -0.39079,-1.59161 -0.85731,-3.15385 -1.41354,-4.673866 -6.26184,-17.127738 -22.71768,-29.383335 -41.984075,-29.383335 -19.064472,0 -35.371582,12.005931 -41.778373,28.850948 3.91567,0.157882 7.713869,0.780205 11.343176,1.808233 5.320032,-11.495574 16.95698,-19.495857 30.43517,-19.495857"
       style="fill:#2859a5;fill-opacity:1;fill-rule:nonzero;stroke:none;stroke-width:0.183577"
       id="path12" />
    <path
       d="m 48.710674,135.00333 c -18.458654,0 -33.477106,-15.03864 -33.477106,-33.52124 0,-16.694473 12.266602,-30.572877 28.258,-33.106236 1.424528,-0.225792 2.882152,-0.354325 4.361788,-0.392884 0.301296,-0.0072 0.598432,-0.02394 0.899521,-0.02394 3.588926,0 7.043854,0.572762 10.287646,1.620985 1.547544,0.501173 3.04737,1.110643 4.488447,1.821085 7.232906,3.566898 13.004599,9.663487 16.141891,17.131404 0.916068,2.177196 1.600828,4.475592 2.039563,6.856622 0.289844,1.576896 0.471977,3.190521 0.53239,4.837254 0.01563,0.41682 0.03126,0.83344 0.03126,1.25567 0,0.026 0.0034,0.0531 0.0034,0.0827 0.0057,3.63115 0.45689,7.16135 1.28507,10.54285 0.390803,1.59162 0.857264,3.15385 1.413495,4.67568 0.563627,1.54208 1.218983,3.04005 1.940427,4.49766 1.683416,3.38884 3.785374,6.52983 6.234258,9.36791 1.338302,1.54571 2.775684,3.00151 4.310424,4.35445 z M 140.6607,58.951015 c 0.58926,3.03636 0.90867,6.168183 0.90867,9.375273 0,0.987641 -0.0365,1.966108 -0.0952,2.939065 11.2386,5.41919 19.01125,16.927651 19.01125,30.216737 0,9.54972 -4.02219,18.17418 -10.45289,24.28728 -1.36766,1.29793 -2.83996,2.48932 -4.41321,3.54673 -5.33472,3.58892 -11.75439,5.68723 -18.65691,5.68723 -2.08177,0 -4.11763,-0.2019 -6.09844,-0.56726 -3.66235,-0.67555 -7.11541,-1.94776 -10.26009,-3.71376 -5.62484,-3.15754 -10.24734,-7.88832 -13.272593,-13.59388 -0.719631,-1.35662 -1.351157,-2.76464 -1.881678,-4.22228 -1.261184,-3.46408 -1.96062,-7.19624 -1.999174,-11.08257 0.0034,0 0.0057,0 0.01019,0 -0.0023,-0.0864 -0.01563,-0.17277 -0.01563,-0.26072 0,-0.026 -0.0034,-0.0531 -0.0034,-0.0806 0,-1.3585 -0.06977,-2.698571 -0.190979,-4.025842 C 92.683309,91.130333 90.796115,85.182442 87.860723,79.888053 87.065853,78.45432 86.190161,77.071984 85.248439,75.741051 80.161511,68.550347 73.011188,62.923713 64.662127,59.731309 c -1.351102,-0.515848 -2.73348,-0.96745 -4.143333,-1.35296 -3.56504,-0.974793 -7.302669,-1.516348 -11.159639,-1.567746 -0.200344,-0.0018 -0.400169,-0.01457 -0.604001,-0.01457 -1.321752,0 -2.62878,0.06791 -3.923006,0.181767 -22.805715,1.995484 -40.7614273,21.186614 -40.7614273,44.50456 0,24.63609 20.0263903,44.6845 44.6422323,44.6845 h 78.251497 c 12.8871,0 24.50755,-5.4908 32.67121,-14.24372 1.15284,-1.2373 2.23963,-2.53521 3.24932,-3.89553 5.5036,-7.42748 8.76578,-16.61185 8.76578,-26.54525 0,-19.863037 -13.03031,-36.731909 -30.98779,-42.531103"
       style="fill:#2d8ad2;fill-opacity:1;fill-rule:nonzero;stroke:none;stroke-width:0.183577"
       id="path14" />
  </g>
</svg>
